<svg xmlns="http://www.w3.org/2000/svg" viewBox="0 0 80 100" width="80" height="100">
  <path d="M15 30 L15 85 Q15 90 20 90 L60 90 Q65 90 65 85 L65 30 Z" fill="#E8D5A3" stroke="#C8A96E" stroke-width="1.5"/>
  <path d="M30 30 Q40 20 50 30" fill="none" stroke="#C8A96E" stroke-width="2"/>
  <path d="M25 30 L55 30" fill="none" stroke="#8B6914" stroke-width="2"/>
  <rect x="37" y="26" width="6" height="8" rx="1" fill="#8B6914"/>
  <line x1="32" y1="30" x2="30" y2="24" stroke="#C8A96E" stroke-width="1"/>
  <line x1="36" y1="30" x2="35" y2="24" stroke="#C8A96E" stroke-width="1"/>
  <line x1="44" y1="30" x2="45" y2="24" stroke="#C8A96E" stroke-width="1"/>
  <line x1="48" y1="30" x2="50" y2="24" stroke="#C8A96E" stroke-width="1"/>
  <path d="M20 45 Q20 35 40 35 Q60 35 60 45 L60 80 Q60 85 40 85 Q20 85 20 80 Z" fill="#D4A843" opacity="0.6"/>
  <path d="M25 50 Q40 44 55 50" fill="none" stroke="#8B6914" stroke-width="1" opacity="0.5"/>
  <path d="M25 60 Q40 56 55 60" fill="none" stroke="#8B6914" stroke-width="1" opacity="0.4"/>
  <path d="M25 70 Q40 66 55 70" fill="none" stroke="#8B6914" stroke-width="1" opacity="0.3"/>
  <rect x="25" y="55" width="30" height="14" rx="2" fill="#8B6914" opacity="0.3"/>
  <text x="40" y="65" text-anchor="middle" font-size="6" font-family="Arial, sans-serif" fill="#8B6914" font-weight="bold">BREAD</text>
</svg>
