<svg preserveAspectRatio="none" width="100%" height="100%" overflow="visible" style="display: block;" viewBox="0 0 15 15" fill="none" xmlns="http://www.w3.org/2000/svg">
<path id="Vector (Stroke)" d="M0 13.0343V3.01965C0 1.93463 0.879107 1.0541 1.96422 1.05392H7.31268C7.59155 1.05406 7.81739 1.28049 7.81739 1.55939C7.81729 1.83822 7.59149 2.06397 7.31268 2.06411H1.96422C1.43793 2.06429 1.01095 2.4918 1.01095 3.01965V13.0343C1.011 13.5621 1.43796 13.9889 1.96422 13.9891H11.9705C12.4969 13.989 12.9245 13.5622 12.9245 13.0343V7.68201C12.9245 7.4031 13.1503 7.17668 13.4292 7.17653C13.7082 7.17653 13.9347 7.40301 13.9347 7.68201V13.0343C13.9346 14.1193 13.0557 15 11.9705 15H1.96422C0.879138 14.9998 4.88165e-05 14.1192 0 13.0343ZM11.1842 0.30254C11.7138 -0.130074 12.4927 -0.09853 12.9867 0.395893L14.6049 2.01478L14.6975 2.11724C15.1008 2.6118 15.1009 3.32355 14.6975 3.81809L14.6049 3.92055L9.62298 8.90623C9.56243 8.96679 9.48806 9.01089 9.40668 9.03449L9.32319 9.05119L6.16056 9.4117C6.0077 9.42904 5.85496 9.37552 5.74616 9.26674C5.63749 9.15791 5.58457 9.00517 5.60196 8.85234L5.94881 5.79597C5.93368 5.64746 5.98547 5.49679 6.09453 5.38764L9.90001 1.57837C9.90962 1.56692 9.91806 1.55421 9.92885 1.54346C9.939 1.53334 9.95072 1.52521 9.96148 1.51613L11.0817 0.395893L11.1842 0.30254ZM6.94685 5.96218L6.67666 8.33548L9.03326 8.06681L12.3796 4.71747L10.2878 2.61892L6.94685 5.96218ZM12.2725 1.10933C12.1568 0.993569 11.9806 0.979286 11.8498 1.06606L11.7967 1.10933L11.0013 1.90473L13.0938 4.00252L13.8899 3.20636L13.9339 3.15323C14.0085 3.04075 14.0084 2.8946 13.9339 2.7821L13.8899 2.72897L12.2725 1.10933Z" fill="var(--fill-0, #051C40)"/>
</svg>
