<svg preserveAspectRatio="none" width="100%" height="100%" overflow="visible" style="display: block;" viewBox="0 0 86.6831 28.087" fill="none" xmlns="http://www.w3.org/2000/svg">
<g id="Layer_1-2">
<path id="Vector" d="M0 0.32729C0.0888143 0.384758 0.188077 0.353411 0.279504 0.353411C3.1085 0.353411 5.93749 0.353411 8.76649 0.353411C10.3286 0.353411 11.8698 0.50753 13.3221 1.13707C16.1903 2.38047 17.8935 4.54597 18.2095 7.62834C18.5308 10.7551 17.4154 14.0073 13.9987 15.8149C13.7688 15.9377 13.7688 16.0187 13.8838 16.2277C15.8612 19.7698 17.8334 23.3119 19.8004 26.8592C19.9136 27.0612 19.8561 27.1622 19.628 27.1622C17.9117 27.1622 16.1955 27.157 14.4793 27.1675C14.2651 27.1675 14.1633 27.0943 14.0692 26.9089C12.34 23.5496 10.6081 20.1929 8.87098 16.8389C8.77955 16.6639 8.68812 16.5934 8.48437 16.596C7.40032 16.6064 6.31626 16.609 5.23482 16.596C4.98666 16.5934 4.91352 16.6456 4.91352 16.9042C4.92397 20.206 4.91874 23.5078 4.92919 26.8096C4.92919 27.0865 4.87956 27.1753 4.57655 27.1727C3.05103 27.1544 1.52552 27.1622 0.00261218 27.1622V0.32729H0ZM4.91874 8.52693C4.91874 9.73376 4.92397 10.9432 4.91352 12.15C4.91352 12.359 4.96054 12.4217 5.17996 12.4191C6.48344 12.4086 7.78692 12.4191 9.0904 12.4113C9.70688 12.4086 10.3129 12.3172 10.8824 12.0638C12.7971 11.2201 13.5494 8.97623 12.7814 7.00664C12.2224 5.56994 10.8066 4.68441 9.12175 4.67396C7.80782 4.66874 6.4965 4.67919 5.18257 4.66874C4.97099 4.66874 4.90829 4.71053 4.90829 4.93257C4.92397 6.13156 4.91613 7.32794 4.91613 8.52693H4.91874Z" fill="var(--fill-0, #051C40)"/>
<path id="Vector_2" d="M30.7323 28.0791C30.5547 27.972 30.3484 28.0008 30.1577 27.9799C26.0618 27.5671 22.8044 24.7486 21.8744 20.7598C21.2997 18.3043 21.3154 15.8541 22.3786 13.5188C24.0478 9.86176 26.963 8.0045 30.991 7.86344C32.3049 7.81642 33.5979 7.97315 34.8282 8.46163C37.2367 9.41508 38.8118 11.1705 39.7052 13.5502C40.3896 15.3735 40.6012 17.2777 40.5751 19.2134C40.5751 19.4354 40.4444 19.3962 40.3138 19.3962H36.3407C33.1173 19.3962 29.8938 19.4015 26.673 19.391C26.3909 19.391 26.3387 19.4694 26.37 19.728C26.6051 21.6688 27.778 22.8626 29.5177 23.5653C31.1372 24.2183 32.7907 24.0459 34.4286 23.6123C35.6119 23.2988 36.6855 22.7686 37.5658 21.8987C37.6703 21.7942 37.7356 21.7629 37.8532 21.8987C38.6238 22.7712 39.3996 23.641 40.1806 24.503C40.3112 24.6467 40.2851 24.7146 40.1649 24.8426C38.3181 26.7757 35.975 27.6455 33.3785 27.9799C33.0911 28.0164 32.796 27.9799 32.5139 28.0844H32.284C31.8451 28.0243 31.3985 28.0243 30.9596 28.0844H30.7297L30.7323 28.0791ZM30.9779 15.9664C32.425 15.9664 33.8748 15.9586 35.322 15.9743C35.6041 15.9769 35.6563 15.8907 35.6276 15.6399C35.4917 14.4566 34.9745 13.4796 34.0106 12.7613C32.2761 11.4683 29.5987 11.5623 27.8563 12.9729C26.9891 13.6755 26.4536 14.5663 26.3334 15.6895C26.3073 15.9246 26.3804 15.9743 26.6051 15.9717C28.0627 15.9612 29.5229 15.9664 30.9779 15.9664Z" fill="var(--fill-0, #051C40)"/>
<path id="Vector_3" d="M67.2768 28.0791C66.6603 26.9637 66.0438 25.8457 65.4274 24.7303C65.3647 24.6023 65.3333 24.4586 65.3412 24.3176C65.3412 23.8605 65.3516 23.4033 65.3386 22.9462C65.3307 22.6902 65.4117 22.6066 65.6808 22.6066C68.7762 22.6144 71.8742 22.6118 74.9697 22.6118C75.3458 22.6118 75.3458 22.6118 75.3458 22.2409C75.3458 21.7942 75.3537 21.3475 75.3406 20.9009C75.3354 20.7128 75.3981 20.6527 75.5888 20.6579C76.0851 20.6684 76.584 20.6658 77.0856 20.6579C77.2684 20.6553 77.3389 20.7154 77.3389 20.9009C77.3363 22.8234 77.3363 24.7434 77.3389 26.6659C77.3389 26.8148 77.3076 26.8932 77.1352 26.8932C76.6075 26.8854 76.0799 26.8854 75.5522 26.8932C75.3537 26.8958 75.3432 26.7861 75.3432 26.6398C75.3458 26.1252 75.3354 25.6106 75.3485 25.0986C75.3511 24.9184 75.2858 24.8714 75.1186 24.8714C72.7702 24.8766 70.4219 24.8766 68.0735 24.8714C67.8332 24.8714 67.8802 24.9628 67.9586 25.1039C68.2799 25.6994 68.5855 26.3028 68.9172 26.8906C69.0348 27.0996 68.9747 27.1753 68.7866 27.2798C68.3008 27.5436 67.781 27.7448 67.3395 28.0791L67.2768 28.087V28.0791Z" fill="var(--fill-0, #34C5F5)"/>
<path id="Vector_4" d="M62.3161 23.2126C62.2012 23.2309 62.1646 23.1473 62.1097 23.1055C61.057 22.254 59.6334 22.0868 58.4736 22.732C57.238 23.4164 56.6555 24.49 56.7521 25.9006C56.7678 26.1357 56.7182 26.2846 56.5223 26.423C53.9963 28.2411 51.2848 28.5598 48.4245 27.3477C46.0944 26.3603 44.5741 24.5501 43.7722 22.2174C42.6307 18.8999 42.8161 15.6477 44.6943 12.5915C45.7366 10.8962 47.2778 9.78601 49.0775 8.99713C51.4285 7.96793 53.8448 7.89218 56.3002 8.55567C56.6738 8.65755 57.0316 8.82211 57.4313 8.97362V8.63665C57.4313 6.04798 57.4339 3.4593 57.4261 0.870627C57.4261 0.630306 57.4914 0.57545 57.7265 0.578062C59.1736 0.588511 60.6234 0.585899 62.0705 0.578062C62.2534 0.578062 62.3135 0.619857 62.3135 0.813159C62.3083 8.23437 62.3056 15.6582 62.3083 23.082L62.3135 23.2152L62.3161 23.2126ZM57.4391 16.6587C57.4391 15.4597 57.4339 14.467 57.4444 13.477C57.4444 13.3046 57.3974 13.1949 57.2511 13.1035C56.9402 12.8971 56.6059 12.7273 56.2558 12.6019C55.3233 12.2911 54.3594 12.265 53.3877 12.2493C51.5565 12.2206 50.1538 13.033 49.1846 14.5088C47.7871 16.6456 47.6591 18.9522 48.6674 21.2639C49.7463 23.7455 52.8234 24.7225 55.1326 23.3981C56.5223 22.5988 57.1779 21.3292 57.3843 19.8063C57.5358 18.6909 57.4052 17.5625 57.4418 16.6561L57.4391 16.6587Z" fill="var(--fill-0, #051C40)"/>
<path id="Vector_5" d="M71.184 18.6074C70.0294 18.5943 68.8644 18.4715 67.7568 18.0144C65.9361 17.2621 64.9931 15.7914 65.014 13.8401C65.0323 11.7896 66.2705 10.3241 68.2113 9.72855C70.3194 9.08334 72.4483 9.12514 74.5406 9.82259C75.8729 10.2667 76.923 11.0921 77.3723 12.4583C77.9182 14.1144 77.6805 15.6634 76.4214 16.9539C75.7083 17.6853 74.7914 18.0719 73.8092 18.3148C72.9577 18.5264 72.0904 18.6048 71.1866 18.61L71.184 18.6074ZM71.1422 16.3165C71.8971 16.306 72.5946 16.2538 73.2763 16.0788C73.9346 15.9116 74.5511 15.6582 75.037 15.1645C75.7318 14.4618 75.7318 13.4379 75.0474 12.7326C74.7209 12.3956 74.3186 12.184 73.885 12.0194C73.1614 11.7425 72.4039 11.6381 71.6359 11.6041C70.5936 11.5597 69.5644 11.6302 68.5875 12.0325C67.9292 12.3042 67.3833 12.7169 67.1691 13.4326C66.8948 14.3469 67.318 15.2298 68.2401 15.7131C69.1622 16.1963 70.1731 16.2904 71.1422 16.3165Z" fill="var(--fill-0, #34C5F5)"/>
<path id="Vector_6" d="M70.3566 2.0879C71.9109 2.0879 73.4651 2.08006 75.0168 2.09574C75.3172 2.09835 75.3903 2.00954 75.3746 1.72481C75.3511 1.26768 75.3746 0.810543 75.3694 0.353411C75.3668 0.181007 75.4269 0.115702 75.6019 0.120927C76.0904 0.128763 76.5789 0.128763 77.0673 0.120927C77.2606 0.115702 77.3129 0.199292 77.3129 0.376921C77.3129 2.28904 77.3129 4.20116 77.3129 6.11328C77.3129 6.28568 77.2554 6.35099 77.083 6.34837C76.5945 6.34054 76.1061 6.34054 75.6176 6.34837C75.4295 6.35099 75.3642 6.27785 75.3668 6.0976C75.3746 5.61174 75.359 5.12587 75.3746 4.64262C75.3825 4.4023 75.3537 4.31087 75.056 4.31348C72.7755 4.32654 70.4925 4.31087 68.212 4.30565C68.0997 4.30565 67.9534 4.2534 67.8934 4.36834C67.8333 4.48327 67.9508 4.57993 68.0031 4.67919C68.3139 5.25909 68.6248 5.83639 68.9434 6.41107C69.0218 6.54951 69.0009 6.62527 68.8572 6.70102C68.3897 6.94134 67.9247 7.1895 67.4623 7.44288C67.3213 7.52124 67.2481 7.50035 67.175 7.35929C66.6108 6.32225 66.0439 5.28783 65.4719 4.2534C65.3987 4.11757 65.3648 3.96867 65.37 3.81456C65.3752 3.33914 65.3857 2.86372 65.37 2.38569C65.3595 2.14276 65.4457 2.08268 65.6808 2.08268C67.2429 2.09313 68.805 2.0879 70.3697 2.0879H70.3645H70.3566Z" fill="var(--fill-0, #34C5F5)"/>
<path id="Vector_7" d="M60.0259 23.1525C60.3524 23.1525 60.6737 23.2205 60.9741 23.3458C61.2745 23.4712 61.5462 23.6567 61.7761 23.8866C62.006 24.1164 62.1862 24.3907 62.3064 24.6911C62.4291 24.9915 62.4892 25.3128 62.4866 25.6367C62.4735 26.9716 61.3451 28.0582 59.9815 28.0478C58.6049 28.0373 57.5365 26.9402 57.547 25.5453C57.5574 24.2079 58.6597 23.1447 60.0285 23.1525H60.0259Z" fill="var(--fill-0, #34C5F5)"/>
<path id="Vector_8" fill-rule="evenodd" clip-rule="evenodd" d="M83.2268 0.139212C82.8297 0.19668 82.3569 0.379533 81.9965 0.612018C81.9024 0.67471 81.717 0.831441 81.5811 0.96205C80.8027 1.72742 80.518 2.79842 80.821 3.83545C80.9594 4.30826 81.1788 4.68441 81.5315 5.04228C81.9912 5.51247 82.4928 5.78414 83.1275 5.90169C83.4723 5.96699 84.0653 5.94087 84.4023 5.84945C85.5255 5.54121 86.3693 4.61388 86.5495 3.49326C86.5965 3.19808 86.5704 2.57116 86.4973 2.30733C86.1002 0.862787 84.6922 -0.0697624 83.2268 0.139212ZM84.0157 0.753076C84.3448 0.810544 84.6583 0.933316 84.9299 1.10833C85.4367 1.44008 85.8076 1.97819 85.9252 2.55548C85.9774 2.81148 85.9774 3.25294 85.9252 3.49326C85.7293 4.41013 85.0188 5.10759 84.0862 5.29566C83.7571 5.36097 83.2738 5.33746 82.9734 5.24081C82.1375 4.97436 81.5785 4.37879 81.3669 3.53505C81.3016 3.26861 81.3068 2.73572 81.38 2.46667C81.6987 1.29119 82.8402 0.549325 84.0131 0.753076H84.0157ZM82.498 1.5524V3.0309C82.498 4.32654 82.5032 4.51723 82.5398 4.56686C82.579 4.62172 82.5999 4.62433 82.8768 4.62433C83.0387 4.62433 83.185 4.6165 83.2033 4.60343C83.279 4.5538 83.2921 4.45715 83.2921 3.98174V3.49326H83.65L83.9112 4.00002C84.0549 4.27691 84.1959 4.53029 84.2273 4.56425C84.2769 4.61911 84.303 4.62433 84.593 4.62433C84.8829 4.62433 84.9117 4.61911 84.9587 4.57209C84.9874 4.54335 85.0109 4.50417 85.0109 4.4885C85.0109 4.47283 84.8725 4.20638 84.7053 3.89814C84.5381 3.59252 84.4023 3.3313 84.4023 3.31824C84.4023 3.30779 84.4493 3.26338 84.5068 3.2242C84.6531 3.12233 84.815 2.86894 84.8542 2.68609C84.8725 2.6025 84.8803 2.451 84.8725 2.34651C84.8464 1.99909 84.6687 1.72742 84.3762 1.57853C84.128 1.45314 83.8955 1.42179 83.2268 1.42179H82.6286L82.498 1.54979V1.5524ZM83.9713 2.1741C84.1254 2.28904 84.1463 2.56332 84.0104 2.71221C83.9295 2.80103 83.7597 2.84021 83.4723 2.84021H83.2895V2.09835L83.5925 2.1088C83.8485 2.11664 83.906 2.12708 83.9687 2.1741H83.9713Z" fill="var(--fill-0, #051C40)" stroke="var(--stroke-0, white)" stroke-width="0.22" stroke-miterlimit="10"/>
</g>
</svg>
