<svg preserveAspectRatio="none" width="100%" height="100%" overflow="visible" style="display: block;" viewBox="0 0 12 6.66667" fill="none" xmlns="http://www.w3.org/2000/svg">
<g id="Group 23">
<path id="Vector (Stroke)" fill-rule="evenodd" clip-rule="evenodd" d="M0.122836 0.118648C0.283092 -0.0430835 0.538952 -0.038954 0.694315 0.127872L5.98885 5.81305C5.99182 5.81624 5.99474 5.81947 5.99761 5.82276C5.99854 5.82382 5.99933 5.82447 5.99988 5.82484C5.99992 5.82487 5.99996 5.8249 6 5.82493C6.0003 5.82473 6.00068 5.82445 6.00112 5.82405C6.0015 5.82371 6.00193 5.82328 6.00239 5.82276C6.00402 5.82089 6.00566 5.81904 6.00732 5.81721C6.00859 5.81581 6.00986 5.81443 6.01115 5.81305L11.3057 0.127872C11.461 -0.038954 11.7169 -0.0430835 11.8772 0.118648C12.0374 0.280379 12.0414 0.546727 11.886 0.713553L6.5952 6.39474C6.52043 6.47874 6.43004 6.5466 6.32896 6.59359C6.22555 6.64165 6.11355 6.66667 6 6.66667C5.88645 6.66667 5.77445 6.64165 5.67104 6.59359C5.56996 6.5466 5.47957 6.47874 5.4048 6.39474L0.113976 0.713553C-0.041387 0.546727 -0.03742 0.280379 0.122836 0.118648Z" fill="var(--fill-0, #051C40)"/>
</g>
</svg>
