<svg preserveAspectRatio="none" width="100%" height="100%" overflow="visible" style="display: block;" viewBox="0 0 18 18" fill="none" xmlns="http://www.w3.org/2000/svg">
<g id="Vector">
<path d="M7.43345 0C11.5047 0 14.8103 3.27422 14.8651 7.33922C14.8704 7.37268 14.8751 7.40665 14.8751 7.44161C14.8751 11.5466 11.5466 14.8751 7.44161 14.8751C3.33768 14.875 0 11.5475 0 7.44161C7.14512e-05 3.33782 3.32774 0.00022588 7.43345 0ZM1.29931 7.44161C1.29931 10.8282 4.05311 13.5766 7.44161 13.5767C10.8084 13.5767 13.5414 10.863 13.5748 7.50413C13.5729 7.48349 13.5685 7.46276 13.5685 7.44161C13.5684 4.04573 10.8205 1.29931 7.43345 1.29931C4.04709 1.29954 1.29939 4.05325 1.29931 7.44161Z" fill="var(--fill-0, #051C40)"/>
<path d="M11.7754 11.7754C11.9972 11.5536 12.3397 11.5258 12.5917 11.692L12.6941 11.7754L17.8098 16.8911L17.8932 16.9935C18.0594 17.2455 18.0317 17.588 17.8098 17.8098C17.588 18.0317 17.2455 18.0594 16.9935 17.8932L16.8911 17.8098L11.7754 12.6941L11.692 12.5918C11.5258 12.3397 11.5536 11.9972 11.7754 11.7754Z" fill="var(--fill-0, #051C40)"/>
</g>
</svg>
