<svg preserveAspectRatio="none" width="100%" height="100%" overflow="visible" style="display: block;" viewBox="0 0 18 18" fill="none" xmlns="http://www.w3.org/2000/svg">
<g id="icons">
<path id="Vector (Stroke)" fill-rule="evenodd" clip-rule="evenodd" d="M8.99996 1.19066C6.97245 1.19066 5.33448 2.8295 5.33448 4.82852C5.33448 6.82755 6.96515 8.45913 8.99265 8.45913C11.0222 8.45913 12.6581 6.83282 12.6581 4.82852C12.6581 4.79904 12.6603 4.77005 12.6644 4.74171C12.618 2.77601 10.9988 1.19066 8.99996 1.19066ZM13.8478 4.92829C13.8532 4.89585 13.8561 4.86252 13.8561 4.82852C13.8561 2.15803 11.6784 0 8.99996 0C6.32084 0 4.14382 2.16595 4.14382 4.82852C4.14382 7.49109 6.31353 9.64979 8.99265 9.64979C11.6364 9.64979 13.7943 7.55365 13.8478 4.92829Z" fill="var(--fill-0, #051C40)"/>
<path id="Vector (Stroke)_2" fill-rule="evenodd" clip-rule="evenodd" d="M1.21336 16.8094H16.7866C16.4804 12.8085 13.1137 9.6498 9 9.6498C4.88634 9.6498 1.51958 12.8085 1.21336 16.8094ZM0 17.4047C0 12.4615 4.03402 8.45914 9 8.45914C13.966 8.45914 18 12.4615 18 17.4047C18 17.7335 17.7335 18 17.4047 18H0.595331C0.266539 18 0 17.7335 0 17.4047Z" fill="var(--fill-0, #051C40)"/>
</g>
</svg>
