<svg xmlns="http://www.w3.org/2000/svg" viewBox="0 0 200 200" width="200" height="200">
  <rect width="200" height="200" fill="#f5f5f5" rx="8"/>
  <path d="M55 55 Q50 50, 55 45 L80 30 L120 30 L145 45 Q150 50, 145 55 L145 160 Q145 168, 135 168 L65 168 Q55 168, 55 160 Z" fill="#C0392B"/>
  <path d="M55 45 L80 30 L120 30 L145 45" fill="none" stroke="#A93226" stroke-width="2"/>
  <line x1="80" y1="30" x2="82" y2="38" stroke="#A93226" stroke-width="1"/>
  <line x1="90" y1="28" x2="91" y2="38" stroke="#A93226" stroke-width="1"/>
  <line x1="100" y1="27" x2="100" y2="38" stroke="#A93226" stroke-width="1"/>
  <line x1="110" y1="28" x2="109" y2="38" stroke="#A93226" stroke-width="1"/>
  <line x1="120" y1="30" x2="118" y2="38" stroke="#A93226" stroke-width="1"/>
  <path d="M55 100 L100 55 L145 55 L145 100 L100 145 L55 145 Z" fill="#27AE60" opacity="0.7"/>
  <ellipse cx="85" cy="115" rx="12" ry="8" fill="#F1C40F" transform="rotate(-15 85 115)"/>
  <ellipse cx="105" cy="105" rx="11" ry="7" fill="#F4D03F" transform="rotate(20 105 105)"/>
  <ellipse cx="115" cy="120" rx="10" ry="7" fill="#F1C40F" transform="rotate(-10 115 120)"/>
  <text x="100" y="80" text-anchor="middle" font-family="Arial, sans-serif" font-weight="bold" font-size="22" fill="white">CHIPS</text>
  <text x="100" y="150" text-anchor="middle" font-family="Arial, sans-serif" font-weight="bold" font-size="10" fill="white">CLASSIC SALTED</text>
  <text x="100" y="163" text-anchor="middle" font-family="Arial, sans-serif" font-size="9" fill="#FADBD8">150g</text>
</svg>