<svg width="72" height="24" viewBox="0 0 72.0655 23.3505" fill="none" xmlns="http://www.w3.org/2000/svg">
<path d="M0 0.272109C0.0738372 0.319886 0.156361 0.293826 0.23237 0.293826C2.5843 0.293826 4.93624 0.293826 7.28817 0.293826C8.58684 0.293826 9.86813 0.421955 11.0756 0.945331C13.4601 1.97905 14.876 3.77938 15.1388 6.34196C15.4059 8.94147 14.4786 11.6452 11.6381 13.148C11.4469 13.2501 11.4469 13.3174 11.5425 13.4911C13.1865 16.4359 14.8261 19.3807 16.4614 22.3299C16.5555 22.4978 16.5077 22.5818 16.318 22.5818C14.8912 22.5818 13.4644 22.5775 12.0376 22.5862C11.8596 22.5862 11.7749 22.5253 11.6967 22.3712C10.259 19.5784 8.81921 16.7878 7.37504 13.9993C7.29903 13.8538 7.22302 13.7952 7.05363 13.7974C6.15238 13.806 5.25113 13.8082 4.35205 13.7974C4.14574 13.7952 4.08494 13.8386 4.08494 14.0536C4.09362 16.7986 4.08928 19.5436 4.09797 22.2886C4.09797 22.5188 4.05671 22.5927 3.80479 22.5905C2.53653 22.5753 1.26826 22.5818 0.00217168 22.5818V0.272109H0ZM4.08928 7.08902C4.08928 8.09234 4.09362 9.09783 4.08494 10.1011C4.08494 10.2749 4.12403 10.327 4.30645 10.3248C5.39012 10.3161 6.47379 10.3248 7.55746 10.3183C8.06998 10.3161 8.57381 10.2401 9.04723 10.0295C10.6391 9.32803 11.2645 7.46255 10.626 5.8251C10.1613 4.63068 8.98426 3.89448 7.58352 3.88579C6.49116 3.88145 5.40098 3.89013 4.30862 3.88145C4.13271 3.88145 4.08059 3.91619 4.08059 4.10079C4.09362 5.09759 4.08711 6.09222 4.08711 7.08902H4.08928Z" fill="#051C40"/>
<path d="M25.5498 23.3441C25.4022 23.255 25.2306 23.2789 25.0721 23.2616C21.6669 22.9184 18.9588 20.5752 18.1857 17.259C17.7079 15.2176 17.7209 13.1806 18.6048 11.2391C19.9925 8.19875 22.4161 6.65469 25.7648 6.53742C26.8572 6.49833 27.9322 6.62863 28.955 7.03473C30.9573 7.8274 32.2669 9.28677 33.0096 11.2652C33.5785 12.781 33.7545 14.3642 33.7327 15.9734C33.7327 16.158 33.6242 16.1254 33.5156 16.1254H30.2124C27.5326 16.1254 24.8527 16.1297 22.175 16.1211C21.9405 16.1211 21.8971 16.1862 21.9231 16.4012C22.1186 18.0148 23.0937 19.0072 24.54 19.5914C25.8864 20.1343 27.2611 19.991 28.6228 19.6305C29.6065 19.3699 30.4991 18.929 31.231 18.2059C31.3178 18.119 31.3721 18.0929 31.4698 18.2059C32.1105 18.9312 32.7555 19.6544 33.4048 20.371C33.5134 20.4905 33.4917 20.5469 33.3918 20.6534C31.8564 22.2604 29.9084 22.9836 27.7497 23.2616C27.5109 23.292 27.2655 23.2615 27.0309 23.3484H26.8398C26.475 23.2985 26.1036 23.2985 25.7388 23.3484H25.5477L25.5498 23.3441ZM25.754 13.274C26.9571 13.274 28.1624 13.2675 29.3655 13.2805C29.6 13.2827 29.6435 13.211 29.6196 13.0025C29.5066 12.0187 29.0766 11.2065 28.2753 10.6093C26.8333 9.53434 24.6073 9.61252 23.1588 10.7852C22.4378 11.3694 21.9926 12.11 21.8927 13.0438C21.871 13.2392 21.9318 13.2805 22.1186 13.2783C23.3304 13.2696 24.5443 13.274 25.754 13.274Z" fill="#051C40"/>
<path d="M55.9316 23.344C55.4191 22.4167 54.9065 21.4872 54.394 20.5599C54.3419 20.4535 54.3158 20.3341 54.3224 20.2168C54.3224 19.8368 54.331 19.4567 54.3202 19.0767C54.3137 18.8638 54.381 18.7944 54.6047 18.7944C57.1781 18.8009 59.7537 18.7987 62.3272 18.7987C62.6399 18.7987 62.6399 18.7987 62.6399 18.4903C62.6399 18.119 62.6464 17.7476 62.6356 17.3762C62.6312 17.2199 62.6833 17.1699 62.8419 17.1743C63.2545 17.183 63.6693 17.1808 64.0863 17.1743C64.2383 17.1721 64.2969 17.2221 64.2969 17.3762C64.2947 18.9746 64.2947 20.5708 64.2969 22.1691C64.2969 22.2929 64.2708 22.3581 64.1275 22.3581C63.6888 22.3516 63.2502 22.3516 62.8115 22.3581C62.6464 22.3603 62.6377 22.269 62.6377 22.1474C62.6399 21.7196 62.6312 21.2918 62.6421 20.8661C62.6443 20.7163 62.59 20.6772 62.451 20.6772C60.4986 20.6815 58.5463 20.6815 56.5939 20.6772C56.3941 20.6772 56.4332 20.7532 56.4984 20.8705C56.7655 21.3656 57.0196 21.8673 57.2954 22.3559C57.3931 22.5296 57.3432 22.5926 57.1868 22.6795C56.7829 22.8988 56.3507 23.0661 55.9837 23.344L55.9316 23.3505V23.344Z" fill="#34C5F5"/>
<path d="M51.8075 19.2982C51.712 19.3134 51.6816 19.2439 51.636 19.2092C50.7608 18.5012 49.5772 18.3622 48.613 18.8986C47.5858 19.4676 47.1015 20.3602 47.1819 21.5329C47.1949 21.7283 47.1536 21.8521 46.9908 21.9672C44.8907 23.4787 42.6365 23.7437 40.2585 22.736C38.3214 21.9151 37.0575 20.4101 36.3908 18.4708C35.4417 15.7128 35.5959 13.009 37.1574 10.4682C38.0239 9.05873 39.3052 8.13577 40.8015 7.47992C42.756 6.62427 44.7648 6.5613 46.8062 7.1129C47.1167 7.1976 47.4142 7.33441 47.7465 7.46037V7.18023C47.7465 5.02809 47.7487 2.87595 47.7422 0.72381C47.7422 0.524016 47.7964 0.47841 47.9919 0.480582C49.195 0.489269 50.4003 0.487097 51.6034 0.480582C51.7554 0.480582 51.8054 0.515329 51.8054 0.676033C51.801 6.84579 51.7989 13.0177 51.801 19.1896L51.8054 19.3004L51.8075 19.2982ZM47.753 13.8495C47.753 12.8527 47.7487 12.0274 47.7574 11.2044C47.7574 11.061 47.7183 10.9698 47.5967 10.8938C47.3382 10.7222 47.0602 10.5811 46.7692 10.4768C45.994 10.2184 45.1926 10.1967 44.3847 10.1837C42.8624 10.1598 41.6962 10.8352 40.8905 12.0622C39.7286 13.8386 39.6222 15.7562 40.4605 17.6781C41.3574 19.7412 43.9156 20.5535 45.8354 19.4524C46.9908 18.7879 47.5358 17.7324 47.7074 16.4663C47.8334 15.539 47.7248 14.6009 47.7552 13.8473L47.753 13.8495Z" fill="#051C40"/>
<path d="M59.18 15.4695C58.2201 15.4587 57.2516 15.3566 56.3308 14.9766C54.8171 14.3511 54.0331 13.1285 54.0505 11.5062C54.0657 9.80146 55.0951 8.58314 56.7086 8.088C58.4612 7.55159 60.2311 7.58634 61.9706 8.16618C63.0782 8.53536 63.9512 9.22162 64.3247 10.3574C64.7786 11.7343 64.581 13.0221 63.5342 14.0949C62.9414 14.7029 62.1791 15.0244 61.3626 15.2263C60.6546 15.4022 59.9336 15.4674 59.1822 15.4717L59.18 15.4695ZM59.1453 13.565C59.7729 13.5563 60.3527 13.5129 60.9195 13.3674C61.4668 13.2284 61.9793 13.0177 62.3833 12.6073C62.9609 12.0231 62.9609 11.1718 62.3919 10.5854C62.1205 10.3053 61.786 10.1294 61.4255 9.99256C60.824 9.76237 60.1942 9.6755 59.5557 9.64727C58.6892 9.61035 57.8336 9.66898 57.0214 10.0034C56.4741 10.2293 56.0202 10.5724 55.8421 11.1674C55.6141 11.9275 55.9659 12.6616 56.7325 13.0633C57.4991 13.4651 58.3396 13.5433 59.1453 13.565Z" fill="#34C5F5"/>
<path d="M58.4922 1.73581C59.7843 1.73581 61.0765 1.7293 62.3665 1.74233C62.6162 1.7445 62.677 1.67066 62.664 1.43395C62.6444 1.0539 62.664 0.673859 62.6597 0.293814C62.6575 0.150483 62.7074 0.096191 62.8529 0.100534C63.259 0.107049 63.6651 0.107049 64.0712 0.100534C64.232 0.096191 64.2754 0.165685 64.2754 0.313359C64.2754 1.90303 64.2754 3.4927 64.2754 5.08238C64.2754 5.22571 64.2276 5.28 64.0843 5.27783C63.6782 5.27131 63.2721 5.27131 62.866 5.27783C62.7096 5.28 62.6553 5.21919 62.6575 5.06935C62.664 4.66541 62.651 4.26148 62.664 3.85972C62.6705 3.65992 62.6466 3.58392 62.399 3.58609C60.5032 3.59695 58.6051 3.58392 56.7092 3.57957C56.6159 3.57957 56.4942 3.53614 56.4443 3.63169C56.3943 3.72725 56.4921 3.8076 56.5355 3.89012C56.7939 4.37224 57.0524 4.85218 57.3173 5.32995C57.3825 5.44505 57.3651 5.50803 57.2456 5.57101C56.8569 5.7708 56.4704 5.97711 56.086 6.18776C55.9687 6.25291 55.9079 6.23554 55.8471 6.11827C55.378 5.25611 54.9067 4.39612 54.4311 3.53614C54.3703 3.42321 54.3421 3.29942 54.3464 3.1713C54.3508 2.77605 54.3595 2.3808 54.3464 1.98338C54.3378 1.78142 54.4094 1.73147 54.6049 1.73147C55.9035 1.74016 57.2022 1.73581 58.5031 1.73581H58.4987H58.4922Z" fill="#34C5F5"/>
<path d="M49.9036 19.2483C50.175 19.2483 50.4421 19.3048 50.6919 19.409C50.9416 19.5133 51.1675 19.6674 51.3586 19.8586C51.5497 20.0497 51.6995 20.2777 51.7994 20.5274C51.9015 20.7772 51.9515 21.0443 51.9493 21.3136C51.9384 22.4233 51.0003 23.3267 49.8666 23.318C48.7222 23.3094 47.834 22.3973 47.8426 21.2376C47.8513 20.1257 48.7678 19.2418 49.9057 19.2483H49.9036Z" fill="#34C5F5"/>
<path fill-rule="evenodd" clip-rule="evenodd" d="M69.192 0.115737C68.8619 0.163514 68.4688 0.315531 68.1692 0.508811C68.091 0.560932 67.9368 0.691233 67.8239 0.799817C67.1767 1.43612 66.94 2.32651 67.1919 3.18867C67.307 3.58174 67.4894 3.89447 67.7826 4.19199C68.1648 4.58289 68.5818 4.80874 69.1095 4.90647C69.3962 4.96076 69.8891 4.93905 70.1693 4.86304C71.1031 4.60678 71.8045 3.83583 71.9544 2.90418C71.9935 2.65878 71.9718 2.13757 71.911 1.91823C71.5809 0.717293 70.4103 -0.0579982 69.192 0.115737ZM69.8479 0.626082C70.1215 0.673859 70.3821 0.775928 70.608 0.921431C71.0293 1.19723 71.3376 1.6446 71.4354 2.12454C71.4788 2.33737 71.4788 2.70438 71.4354 2.90418C71.2725 3.66644 70.6818 4.24628 69.9065 4.40264C69.6329 4.45693 69.2311 4.43739 68.9814 4.35703C68.2864 4.13552 67.8217 3.64038 67.6458 2.93893C67.5915 2.71741 67.5958 2.27439 67.6566 2.05071C67.9216 1.07345 68.8706 0.456691 69.8457 0.626082H69.8479ZM68.5861 1.29062V2.51979C68.5861 3.59695 68.5905 3.75548 68.6209 3.79674C68.6534 3.84235 68.6708 3.84452 68.901 3.84452C69.0357 3.84452 69.1573 3.838 69.1725 3.82714C69.2354 3.78588 69.2463 3.70553 69.2463 3.31028V2.90418H69.5438L69.761 3.32548C69.8804 3.55568 69.9977 3.76634 70.0238 3.79457C70.065 3.84017 70.0867 3.84452 70.3278 3.84452C70.5689 3.84452 70.5928 3.84017 70.6318 3.80108C70.6557 3.7772 70.6753 3.74462 70.6753 3.73159C70.6753 3.71856 70.5602 3.49705 70.4212 3.24079C70.2822 2.9867 70.1693 2.76953 70.1693 2.75868C70.1693 2.74999 70.2084 2.71307 70.2561 2.68049C70.3778 2.5958 70.5124 2.38515 70.545 2.23313C70.5602 2.16363 70.5667 2.03768 70.5602 1.95081C70.5385 1.66198 70.3908 1.43612 70.1476 1.31233C69.9412 1.20809 69.748 1.18203 69.192 1.18203H68.6947L68.5861 1.28845V1.29062ZM69.8109 1.80748C69.9391 1.90303 69.9564 2.13106 69.8435 2.25484C69.7762 2.32868 69.635 2.36126 69.3962 2.36126H69.2441V1.7445L69.4961 1.75319C69.7089 1.7597 69.7567 1.76839 69.8088 1.80748H69.8109Z" fill="#051C40" stroke="white" stroke-width="0.182901" stroke-miterlimit="10"/>
</svg>