<svg xmlns="http://www.w3.org/2000/svg" viewBox="0 0 80 100" width="80" height="100">
  <path d="M15 30 L15 85 Q15 90 20 90 L60 90 Q65 90 65 85 L65 30 Z" fill="#FFFFFF" stroke="#CCCCCC" stroke-width="1.5"/>
  <path d="M30 30 Q40 20 50 30" fill="none" stroke="#CCCCCC" stroke-width="2"/>
  <path d="M25 30 L55 30" fill="none" stroke="#DDDDDD" stroke-width="2"/>
  <rect x="37" y="26" width="6" height="8" rx="1" fill="#E63946"/>
  <line x1="32" y1="30" x2="30" y2="24" stroke="#DDDDDD" stroke-width="1"/>
  <line x1="36" y1="30" x2="35" y2="24" stroke="#DDDDDD" stroke-width="1"/>
  <line x1="44" y1="30" x2="45" y2="24" stroke="#DDDDDD" stroke-width="1"/>
  <line x1="48" y1="30" x2="50" y2="24" stroke="#DDDDDD" stroke-width="1"/>
  <circle cx="22" cy="38" r="3" fill="#E63946"/><circle cx="32" cy="36" r="2.5" fill="#457B9D"/>
  <circle cx="42" cy="38" r="3" fill="#F4D35E"/><circle cx="52" cy="36" r="2.5" fill="#2A9D8F"/>
  <circle cx="18" cy="46" r="2.5" fill="#457B9D"/><circle cx="27" cy="45" r="3" fill="#F4D35E"/>
  <circle cx="37" cy="47" r="2.5" fill="#2A9D8F"/><circle cx="47" cy="45" r="3" fill="#E63946"/>
  <circle cx="57" cy="47" r="2.5" fill="#457B9D"/>
  <circle cx="22" cy="54" r="3" fill="#2A9D8F"/><circle cx="32" cy="55" r="2.5" fill="#E63946"/>
  <circle cx="42" cy="53" r="3" fill="#457B9D"/><circle cx="52" cy="55" r="2.5" fill="#F4D35E"/>
  <circle cx="18" cy="63" r="2.5" fill="#F4D35E"/><circle cx="27" cy="62" r="3" fill="#2A9D8F"/>
  <circle cx="37" cy="64" r="2.5" fill="#E63946"/><circle cx="47" cy="62" r="3" fill="#457B9D"/>
  <circle cx="57" cy="64" r="2.5" fill="#F4D35E"/>
  <circle cx="22" cy="72" r="3" fill="#E76F51"/><circle cx="32" cy="71" r="2.5" fill="#F4D35E"/>
  <circle cx="42" cy="73" r="3" fill="#2A9D8F"/><circle cx="52" cy="71" r="2.5" fill="#E63946"/>
  <circle cx="18" cy="80" r="2.5" fill="#E63946"/><circle cx="27" cy="81" r="3" fill="#457B9D"/>
  <circle cx="37" cy="79" r="2.5" fill="#F4D35E"/><circle cx="47" cy="81" r="3" fill="#2A9D8F"/>
  <circle cx="57" cy="80" r="2.5" fill="#E76F51"/>
  <rect x="20" y="56" width="40" height="16" rx="3" fill="white" stroke="#E63946" stroke-width="1"/>
  <text x="40" y="66" text-anchor="middle" font-size="5.5" font-family="Arial, sans-serif" fill="#E63946" font-weight="bold">WONDER</text>
  <text x="40" y="71" text-anchor="middle" font-size="4" font-family="Arial, sans-serif" fill="#457B9D">BREAD</text>
</svg>
